<svg width="160" height="36" viewBox="0 0 160 36" fill="none" xmlns="http://www.w3.org/2000/svg">
<path d="M65.1342 28.3813H61.369L57.6324 17.6135L53.8672 28.3813H50.1306L44.2832 7.45898H49.3177L52.3982 18.3694L55.1936 7.84406H60.0712L62.8665 18.3694L65.89 7.45898H70.9816L65.1342 28.3813Z" fill="white"/>
<path d="M83.2761 21.3216C83.2761 25.3435 79.9959 28.6238 75.974 28.6238C71.9521 28.6238 68.6719 25.3435 68.6719 21.3216C68.6719 17.2998 71.9521 14.0195 75.974 14.0195C79.9959 14.0195 83.2761 17.2998 83.2761 21.3216ZM73.2642 21.3216C73.2642 22.8192 74.4765 24.0314 75.974 24.0314C77.4715 24.0314 78.6838 22.8192 78.6838 21.3216C78.6838 19.8241 77.4715 18.6119 75.974 18.6119C74.4765 18.6119 73.2642 19.8241 73.2642 21.3216Z" fill="white"/>
<path d="M109.859 22.4205V9.75586H114.437V14.2484H118.459V18.2417H114.437V22.4775C114.437 23.2477 114.951 23.8039 115.735 23.8039H118.274V28.382H115.593C111.942 28.382 109.859 26.5422 109.859 22.4205Z" fill="white"/>
<path d="M150.037 24.2448V14.2471H146.186V14.9032C145.116 14.3327 143.975 14.0332 142.735 14.0332C138.727 14.0332 135.461 17.2849 135.461 21.3068C135.461 25.3287 138.713 28.6232 142.735 28.6232C146.756 28.6232 145.159 28.2524 146.243 27.7247V28.4092H150.921V24.2733H150.037V24.2448ZM142.849 24.0308C141.351 24.0308 140.167 22.8186 140.167 21.2925C140.167 19.7665 141.351 18.5828 142.849 18.5828C144.346 18.5828 145.558 19.795 145.558 21.2925C145.558 22.79 144.346 24.0308 142.849 24.0308Z" fill="white"/>
<path d="M159.392 23.8028V28.3809H158.294C154.272 28.3809 152.832 26.6267 152.832 22.6476V12.7356H151.947V8.59961H157.41V22.7047C157.41 23.3607 157.752 23.8028 158.422 23.8028H159.378H159.392Z" fill="white"/>
<path d="M92.8731 14.2461V18.5675H91.0048C90.0778 18.5675 89.3076 19.3091 89.3076 20.2361V28.3797H84.7866V18.3821H83.9023V14.2461H88.295V14.9021C89.1222 14.3887 89.9637 14.2461 90.8336 14.2461H92.8731Z" fill="white"/>
<path d="M109.261 28.3809H103.713L100.148 23.4748L99.2637 24.3448V28.3809H94.6714V12.7356H93.7871V8.59961H99.2637V18.0125L103.114 14.2473H108.548L103.2 20.4085L109.261 28.3809Z" fill="white"/>
<path d="M133.921 14.2461V22.3611C133.921 25.8125 131.125 28.6079 127.674 28.6079C124.223 28.6079 121.427 25.8125 121.427 22.3611V18.3821H120.543V14.2461H125.991V22.3611C125.991 23.2882 126.747 24.0583 127.688 24.0583C128.629 24.0583 129.385 23.2882 129.385 22.3611V14.2461H133.935H133.921Z" fill="white"/>
<path d="M36.2824 6.41788C36.2824 2.88091 33.4015 0 29.8645 0H12.2795V11.7233H0V24.2881H12.5648L24.2738 35.9971V24.2738H36.2824V6.40361V6.41788ZM12.5648 12.579L23.9886 24.0029H12.5648V12.579ZM23.9886 35.3268L12.9641 24.3024H23.9886V35.3268ZM35.9971 24.0029H24.2881V18.4122C24.2881 14.7183 21.2788 11.7091 17.585 11.7091H12.579V0.285239H29.8788C33.2589 0.285239 36.0114 3.0378 36.0114 6.41788V24.0029H35.9971Z" fill="white"/>
</svg>
